# File created by Blade
# Date/Time:  Tue Jan 27 19:05:11 2015
#---------------------------------------------------------
:version 1.10
:name HOM
:units
  mass 1.0
  length 1.000000
  angle deg
:documentation
     Acclaim Skeleton File
:root
   axis xyz
   order TX TY TZ RX RY RZ
   position 0.000000 0.000000 0.000000
   orientation 0 0 0
:bonedata
   begin
      id 1
      name Spine_dum
      direction 0.000000 1.000000 0.000000
      length 5.195262
      axis 0.0 0.0 0.0 xyz
   end
   begin
      id 2
      name LeftUpLeg_dum
      direction 1.000000 0.000000 0.000000
      length 3.351363
      axis 0.0 0.0 0.0 xyz
   end
   begin
      id 3
      name RightUpLeg_dum
      direction -1.000000 0.000000 0.000000
      length 3.351363
      axis 0.0 0.0 0.0 xyz
   end
   begin
      id 4
      name Spine
      direction 0.000000 1.000000 0.000000
      length 0.000000
      axis 0.0 0.0 0.0 xyz
      dof rx ry rz
   end
   begin
      id 5
      name Spine_dum1
      direction 0.000000 1.000000 0.000000
      length 15.653875
      axis 0.0 0.0 0.0 xyz
   end
   begin
      id 6
      name Spine_dum2
      direction 0.000000 1.000000 0.000000
      length 10.329768
      axis 0.0 0.0 0.0 xyz
   end
   begin
      id 7
      name Spine_dum3
      direction 0.000000 1.000000 0.000000
      length 10.329768
      axis 0.0 0.0 0.0 xyz
   end
   begin
      id 8
      name Head
      direction 0.000000 1.000000 0.000000
      length 4.527550
      axis 0.0 0.0 0.0 xyz
      dof rx ry rz
   end
   begin
      id 9
      name LeftShoulder
      direction 1.000000 0.000000 0.000000
      length 6.996006
      axis 0.0 0.0 -90.0 xyz
      dof rx ry rz
   end
   begin
      id 10
      name LeftArm
      direction 1.000000 0.000000 0.000000
      length 10.209302
      axis 0.0 0.0 -90.0 xyz
      dof rx ry rz
   end
   begin
      id 11
      name LeftForeArm
      direction 1.000000 0.000000 0.000000
      length 8.563163
      axis 0.0 0.0 -90.0 xyz
      dof ry rz rx
   end
   begin
      id 12
      name LeftHand
      direction 0.000000 0.000000 0.000000
      length 0.000000
      axis 0.0 0.0 -90.0 xyz
      dof rx ry rz
   end
   begin
      id 13
      name LeftHand_dum1
      direction 0.000000 0.000000 0.000000
      length 0.000000
      axis 0.0 0.0 -90.0 xyz
   end
   begin
      id 14
      name LeftHand_dum2
      direction 1.000000 0.000000 0.000000
      length 3.937000
      axis 0.0 0.0 -90.0 xyz
   end
   begin
      id 15
      name LeftHandThumb1
      direction 0.000000 0.000000 1.000000
      length 3.937000
      axis 0.0 0.0 -90.0 xyz
      dof rx rz ry
   end
   begin
      id 16
      name RightShoulder
      direction -1.000000 0.000000 0.000000
      length 6.996006
      axis 0.0 0.0 90.0 xyz
      dof rx ry rz
   end
   begin
      id 17
      name RightArm
      direction -1.000000 0.000000 0.000000
      length 10.209302
      axis 0.0 0.0 90.0 xyz
      dof rx ry rz
   end
   begin
      id 18
      name RightForeArm
      direction -1.000000 0.000000 0.000000
      length 8.563163
      axis 0.0 0.0 90.0 xyz
      dof ry rz rx
   end
   begin
      id 19
      name RightHand
      direction 0.000000 0.000000 0.000000
      length 0.000000
      axis 0.0 0.0 90.0 xyz
      dof rx ry rz
   end
   begin
      id 20
      name RightHand_dum1
      direction 0.000000 0.000000 0.000000
      length 0.000000
      axis 0.0 0.0 90.0 xyz
   end
   begin
      id 21
      name RightHand_dum2
      direction -1.000000 0.000000 0.000000
      length 3.937000
      axis 0.0 0.0 90.0 xyz
   end
   begin
      id 22
      name RightHandThumb1
      direction 0.000000 0.000000 1.000000
      length 3.937000
      axis 0.0 0.0 90.0 xyz
      dof rx rz ry
   end
   begin
      id 23
      name LeftUpLeg
      direction 0.000000 -1.000000 0.000000
      length 16.346831
      axis 0.0 0.0 0.0 xyz
      dof rx ry rz
   end
   begin
      id 24
      name LeftLeg
      direction 0.000000 -1.000000 0.000000
      length 13.959795
      axis 0.0 0.0 0.0 xyz
      dof rx ry rz
   end
   begin
      id 25
      name LeftFoot
      direction 0.000000 -0.258819 0.965926
      length 5.165550
      axis 15.0 0.0 0.0 xyz
      dof rx ry rz
   end
   begin
      id 26
      name LeftToeBase
      direction 0.000000 0.000000 1.000000
      length 2.952750
      axis 0.0 0.0 0.0 xyz
      dof rx ry rz
   end
   begin
      id 27
      name RightUpLeg
      direction 0.000000 -1.000000 0.000000
      length 16.346831
      axis 0.0 0.0 0.0 xyz
      dof rx ry rz
   end
   begin
      id 28
      name RightLeg
      direction 0.000000 -1.000000 0.000000
      length 13.959795
      axis 0.0 0.0 0.0 xyz
      dof rx ry rz
   end
   begin
      id 29
      name RightFoot
      direction 0.000000 -0.258819 0.965926
      length 5.165550
      axis 15.0 0.0 0.0 xyz
      dof rx ry rz
   end
   begin
      id 30
      name RightToeBase
      direction 0.000000 0.000000 1.000000
      length 2.952750
      axis 0.0 0.0 0.0 xyz
      dof rx ry rz
   end
:hierarchy
   begin
      root Spine_dum LeftUpLeg_dum RightUpLeg_dum
      Spine_dum Spine
      LeftUpLeg_dum LeftUpLeg
      RightUpLeg_dum RightUpLeg
      Spine Spine_dum1 Spine_dum2 Spine_dum3
      Spine_dum1 Head
      Spine_dum2 LeftShoulder
      Spine_dum3 RightShoulder
      LeftShoulder LeftArm
      LeftArm LeftForeArm
      LeftForeArm LeftHand
      LeftHand LeftHand_dum1 LeftHand_dum2
      LeftHand_dum1 LeftHandThumb1
      RightShoulder RightArm
      RightArm RightForeArm
      RightForeArm RightHand
      RightHand RightHand_dum1 RightHand_dum2
      RightHand_dum1 RightHandThumb1
      LeftUpLeg LeftLeg
      LeftLeg LeftFoot
      LeftFoot LeftToeBase
      RightUpLeg RightLeg
      RightLeg RightFoot
      RightFoot RightToeBase
   end

# File created by Blade
# Date/Time:  Tue Jan 27 19:05:02 2015
# Frame Rate: 120.000 fps
#------------------------------------------------------
:FULLY-SPECIFIED
:DEGREES
246
root -5.334170 31.757960 -5.252204 4.057523 5.910736 0.711067
Spine -1.815365 -6.271001 -0.837719
Head 27.747162 6.616583 2.190977
LeftShoulder -17.344994 14.906607 16.012860
LeftArm 8.658053 -48.385684 -60.745830
LeftForeArm -15.594231 -0.000000 58.102074
LeftHand -10.460955 -0.000000 21.272626
LeftHandThumb1 -26.253704 0.000000 33.147579
RightShoulder -13.570871 -3.492532 -11.201893
RightArm 2.779321 -25.190254 93.209821
RightForeArm -16.551754 0.000000 16.949849
RightHand -13.328123 0.000000 12.680761
RightHandThumb1 -24.326973 -0.000000 -32.862282
LeftUpLeg -6.716210 -9.507251 -4.059149
LeftLeg 15.683354 -0.000000 -0.000000
LeftFoot -23.954565 19.842569 -15.445483
LeftToeBase 10.562410 -0.000000 -0.000000
RightUpLeg -1.740706 1.565004 0.250655
RightLeg 5.490913 -0.000000 -0.000000
RightFoot -18.453220 -10.561116 9.278375
RightToeBase 3.595462 -0.000000 -0.000000
247
root -5.306702 31.757508 -5.264564 4.094020 5.815552 0.670597
Spine -1.727893 -6.205692 -0.809843
Head 27.769023 6.396865 2.222078
LeftShoulder -17.445969 15.129114 15.842723
LeftArm 8.654045 -48.376828 -60.837888
LeftForeArm -15.685730 -0.000000 58.695547
LeftHand -10.462422 -0.000000 20.984125
LeftHandThumb1 -26.253704 0.000000 33.147579
RightShoulder -13.652280 -3.597529 -11.209866
RightArm 2.880934 -25.125819 92.943285
RightForeArm -17.074387 -0.000000 17.312551
RightHand -13.396680 -0.000000 12.404638
RightHandThumb1 -24.326973 -0.000000 -32.862282
LeftUpLeg -6.829626 -9.537489 -4.075133
LeftLeg 15.810641 -0.000000 -0.000000
LeftFoot -24.014420 19.959372 -15.484283
LeftToeBase 10.533813 -0.000000 -0.000000
RightUpLeg -1.949410 1.683622 0.234238
RightLeg 5.799444 -0.000000 -0.000000
RightFoot -18.557996 -10.576038 9.353663
RightToeBase 3.712574 -0.000000 -0.000000
248
root -5.276639 31.755998 -5.275620 4.138562 5.722709 0.639990
Spine -1.652728 -6.184491 -0.783460
Head 27.820946 6.285023 2.229697
LeftShoulder -17.586661 15.275344 15.702091
LeftArm 8.541340 -48.310745 -60.865714
LeftForeArm -15.867556 -0.000000 59.245561
LeftHand -10.252876 -0.000000 20.715858
LeftHandThumb1 -26.253704 0.000000 33.147579
RightShoulder -13.698947 -3.710225 -11.242287
RightArm 3.010209 -25.145198 92.638698
RightForeArm -17.713530 -0.000000 17.718417
RightHand -13.525226 0.000000 12.037422
RightHandThumb1 -24.326973 -0.000000 -32.862282
LeftUpLeg -6.942000 -9.551515 -4.106986
LeftLeg 15.923145 -0.000000 -0.000000
LeftFoot -24.055155 20.092108 -15.473821
LeftToeBase 10.501603 -0.000000 -0.000000
RightUpLeg -2.183428 1.663874 0.205956
RightLeg 6.143887 -0.000000 -0.000000
RightFoot -18.653910 -10.490914 9.357124
RightToeBase 3.649646 -0.000000 -0.000000
249
root -5.245714 31.754594 -5.285361 4.175509 5.597314 0.631272
Spine -1.577233 -6.083098 -0.804021
Head 27.882041 6.069725 2.254082
LeftShoulder -17.643664 15.442794 15.615916
LeftArm 8.443244 -48.279843 -60.927767
LeftForeArm -15.986156 0.000000 59.766450
LeftHand -10.097503 -0.000000 20.511184
LeftHandThumb1 -26.253704 0.000000 33.147579
RightShoulder -13.800066 -3.844150 -11.239751
RightArm 3.138188 -25.389098 92.220782
RightForeArm -18.167494 -0.000000 18.266130
RightHand -13.611937 -0.000000 11.215457
RightHandThumb1 -24.326973 -0.000000 -32.862282
LeftUpLeg -7.013441 -9.540525 -4.163315
LeftLeg 15.979760 -0.000000 -0.000000
LeftFoot -24.077262 20.229424 -15.442490
LeftToeBase 10.475124 -0.000000 -0.000000
RightUpLeg -2.410286 1.665832 0.151421
RightLeg 6.494402 -0.000000 -0.000000
RightFoot -18.768995 -10.390254 9.360502
RightToeBase 3.614604 -0.000000 -0.000000
250
root -5.221805 31.754295 -5.297872 4.243747 5.460178 0.605074
Spine -1.529176 -5.981793 -0.823294
Head 27.937196 5.884535 2.279403
LeftShoulder -17.712593 15.563065 15.534967
LeftArm 8.285627 -48.205298 -60.908601
LeftForeArm -16.148578 -0.000000 60.274471
LeftHand -9.912011 -0.000000 20.395323
LeftHandThumb1 -26.253704 0.000000 33.147579
RightShoulder -13.898208 -3.956925 -11.241188
RightArm 3.308055 -25.497698 91.827135
RightForeArm -18.833038 -0.000000 18.720255
RightHand -13.834428 -0.000000 11.138001
RightHandThumb1 -24.326973 -0.000000 -32.862282
LeftUpLeg -7.071657 -9.648560 -4.176026
LeftLeg 15.926722 -0.000000 -0.000000
LeftFoot -24.131965 20.421680 -15.534128
LeftToeBase 10.508329 -0.000000 -0.000000
RightUpLeg -2.665991 1.750752 0.120344
RightLeg 6.814801 -0.000000 -0.000000
RightFoot -18.856685 -10.336474 9.380611
RightToeBase 3.616634 -0.000000 -0.000000
251
root -5.191328 31.752789 -5.307350 4.293010 5.351031 0.585622
Spine -1.466248 -5.897844 -0.824851
Head 27.981790 5.706645 2.267302
LeftShoulder -17.757580 15.604141 15.417859
LeftArm 8.012948 -48.113116 -60.748661
LeftForeArm -16.340409 -0.000000 60.805459
LeftHand -9.888544 -0.000000 20.436208
LeftHandThumb1 -26.253704 0.000000 33.147579
RightShoulder -13.995929 -4.139207 -11.288908
RightArm 3.594889 -25.756744 91.406924
RightForeArm -19.392980 -0.000000 19.061106
RightHand -13.894999 -0.000000 11.081168
RightHandThumb1 -24.326973 -0.000000 -32.862282
LeftUpLeg -7.189880 -9.466686 -4.223551
LeftLeg 16.049931 -0.000000 -0.000000
LeftFoot -24.119708 20.416363 -15.418495
LeftToeBase 10.461603 -0.000000 -0.000000
RightUpLeg -2.887321 1.732397 0.077556
RightLeg 7.123965 -0.000000 -0.000000
RightFoot -18.941860 -10.243002 9.383760
RightToeBase 3.629981 -0.000000 -0.000000
252
root -5.156487 31.751895 -5.318190 4.352745 5.229544 0.620416
Spine -1.410830 -5.804208 -0.892805
Head 28.032710 5.518838 2.271763
LeftShoulder -17.833045 15.754423 15.316966
LeftArm 8.014634 -48.131704 -60.869477
LeftForeArm -16.427674 -0.000000 61.273301
LeftHand -9.834431 -0.000000 20.418036
LeftHandThumb1 -26.253704 0.000000 33.147579
RightShoulder -14.053073 -4.264405 -11.324631
RightArm 3.806374 -25.800309 90.981817
RightForeArm -20.220007 0.000000 19.454744
RightHand -14.034594 -0.000000 10.868819
RightHandThumb1 -24.326973 -0.000000 -32.862282
LeftUpLeg -7.266778 -9.403090 -4.320493
LeftLeg 16.070195 -0.000000 -0.000000
LeftFoot -24.088574 20.471245 -15.389306
LeftToeBase 10.407600 -0.000000 -0.000000
RightUpLeg -3.130815 1.667648 -0.026112
RightLeg 7.459040 -0.000000 -0.000000
RightFoot -19.040746 -10.108751 9.364575
RightToeBase 3.488736 -0.000000 -0.000000
253
root -5.126462 31.750636 -5.328237 4.397503 5.135704 0.626268
Spine -1.338979 -5.765658 -0.941325
Head 28.052379 5.352369 2.286266
LeftShoulder -17.900941 15.789407 15.267885
LeftArm 7.800250 -48.084536 -60.824193
LeftForeArm -16.591473 0.000000 61.722496
LeftHand -9.700330 -0.000000 20.375297
LeftHandThumb1 -26.253704 0.000000 33.147579
RightShoulder -14.109740 -4.373085 -11.367649
RightArm 4.069931 -26.124134 90.519029
RightForeArm -20.693994 0.000000 19.777554
RightHand -14.254203 -0.000000 10.646945
RightHandThumb1 -24.326973 -0.000000 -32.862282
LeftUpLeg -7.338689 -9.326516 -4.379978
LeftLeg 16.105870 -0.000000 -0.000000
LeftFoot -24.098843 20.476177 -15.381850
LeftToeBase 10.448305 -0.000000 -0.000000
RightUpLeg -3.352541 1.631059 -0.092825
RightLeg 7.785283 -0.000000 -0.000000
RightFoot -19.135547 -10.007345 9.353062
RightToeBase 3.388638 -0.000000 -0.000000
254
root -5.097082 31.750032 -5.338145 4.426552 5.028907 0.618843
Spine -1.250597 -5.709026 -0.977427
Head 28.108863 5.237843 2.289821
LeftShoulder -17.955408 15.850444 15.196536
LeftArm 7.662608 -48.115149 -60.826301
LeftForeArm -16.706787 -0.000000 62.145783
LeftHand -9.619278 -0.000000 20.322878
LeftHandThumb1 -26.253704 0.000000 33.147579
RightShoulder -14.130282 -4.439386 -11.427473
RightArm 4.271042 -26.388714 90.101034
RightForeArm -21.203933 -0.000000 20.091655
RightHand -14.260038 -0.000000 10.484492
RightHandThumb1 -24.326973 -0.000000 -32.862282
LeftUpLeg -7.374682 -9.244555 -4.427711
LeftLeg 16.095275 -0.000000 -0.000000
LeftFoot -24.088976 20.488291 -15.364704
LeftToeBase 10.449541 -0.000000 -0.000000
RightUpLeg -3.566157 1.642088 -0.141894
RightLeg 8.122343 -0.000000 -0.000000
RightFoot -19.235114 -9.939604 9.365372
RightToeBase 3.423564 -0.000000 -0.000000
